<svg xmlns="http://www.w3.org/2000/svg" width="17.03" height="15.35" viewBox="0 0 17.03 15.35">
  <defs>
    <style>
      .cls-1 {
        fill: #fff;
        fill-rule: evenodd;
      }
    </style>
  </defs>
  <path class="cls-1" d="M2342.13,1818.32a4.268,4.268,0,0,0-3.21,1.41h0l-0.52.66-0.51-.62h0a4.288,4.288,0,0,0-3.21-1.45,4.677,4.677,0,0,0-3.39,1.45,5.025,5.025,0,0,0,0,6.96l6.36,6.6a1.051,1.051,0,0,0,1.51,0l6.36-6.6a5.025,5.025,0,0,0,0-6.96,4.677,4.677,0,0,0-3.39-1.45h0Z" transform="translate(-2329.88 -1818.31)"/>
</svg>
